<?xml version="1.0" encoding="utf-8"?>
<svg viewBox="8.407 133.348 477.971 221.351" xmlns="http://www.w3.org/2000/svg">
  <rect width="478.732" height="222.14" fill="#27374d" x="7.617" y="132.828" style=""/>
  <g transform="matrix(0.4226170480251312, 0, 0, 0.4226170480251312, 36.29417800903322, 162.60873413085938)" style="">
    <svg viewBox="0 0 356 139" data-background-color="#27374d" preserveAspectRatio="xMidYMid meet" height="390" width="1000" xmlns="http://www.w3.org/2000/svg">
      <g id="tight-bounds" transform="matrix(1,0,0,1,-0.06049999999996203,-0.02049999999999841)">
        <svg viewBox="0 0 356.12052 139.04057574612622" height="139.04057574612622" width="356.12052">
          <g>
            <svg viewBox="0 0 356.12052 139.04057574612622" height="139.04057574612622" width="356.12052">
              <g>
                <svg viewBox="0 0 356.12052 139.04057574612622" height="139.04057574612622" width="356.12052">
                  <g>
                    <path d="M0 139.041v-139.041h356.121v139.041z" fill="#ffffff" stroke="transparent" stroke-width="0" rx="0%" data-fill-palette-color="tertiary"/>
                    <path d="M3.283 135.757v-132.474h349.554v132.474z" fill="#526d82" stroke="transparent" stroke-width="0" rx="0%" data-fill-palette-color="quaternary"/>
                    <path d="M9.85 129.191v-119.341h336.421v119.341z" fill="#ffffff" stroke="transparent" stroke-width="0" data-fill-palette-color="tertiary"/>
                  </g>
                  <g transform="matrix(1,0,0,1,19.69974,19.69974)" id="textblocktransform">
                    <svg viewBox="0 0 316.72104 99.64109574612623" height="99.64109574612623" width="316.72104" id="textblock">
                      <g>
                        <svg viewBox="0 0 316.72104 66.4078221973721" height="66.4078221973721" width="316.72104">
                          <g transform="matrix(1,0,0,1,0,0)">
                            <svg width="316.72104" viewBox="1.5 -36.75 178.84 37.5" height="66.4078221973721" data-palette-color="#526d82">
                              <path d="M38.6-2.9L43.55-2.35 43.5 0 30.1 0 29.8-1.6 34.1-3.15 33.8-21 34.5-29.25 24.25-0.8 19.9 0.35 9.35-28.85 10.3-21 9.85-2.85 14.05-2.35 14 0 1.8 0 1.5-1.6Q2.95-2.3 5.95-3.2L5.95-3.2 6.9-29.7 2.95-30.15 3-32.5 13.05-32.5 22.8-5.4 32.4-32.5 41.55-32.5 41.85-30.9Q40.6-30.3 38.15-29.55L38.15-29.55 38.6-2.9ZM66.9-3.75L67.65-1.55 62.6 0.75Q61.85 0.65 60.7-0.43 59.55-1.5 59.05-2.7L59.05-2.7 53.4 0.7 52.2 0.75Q49.2 0.75 47.37-0.95 45.55-2.65 45.55-5.2L45.55-5.2Q45.55-8.6 49.05-10.55L49.05-10.55 58.8-10.8 58.8-15.95Q58.8-18.25 58.25-19.43 57.7-20.6 56.35-21.3L56.35-21.3Q53.3-21.2 50.7-20.45L50.7-20.45 50.3-15.25 47.65-15.05Q46.35-17.4 46.2-21.05L46.2-21.05Q48.4-22.3 52.1-23.48 55.8-24.65 57.35-24.65L57.35-24.65Q58.75-24.65 60.25-23.63 61.75-22.6 62.5-21.48 63.25-20.35 63.3-17.4L63.3-17.4 63.3-4.3Q63.3-3.3 64.6-3.3L64.6-3.3Q65.35-3.3 66.9-3.75L66.9-3.75ZM51.55-2.9L51.55-2.9Q54.5-2.8 58.8-4.75L58.8-4.75 58.8-8.2 56.3-8.35Q50.25-8.35 50.25-5.2L50.25-5.2Q50.25-3.7 51.55-2.9ZM78.95-3.4L78.95-3.4Q80.4-3.4 83.55-4.55L83.55-4.55 84.4-2.25 77.9 0.75Q76.2 0.85 74.52-0.53 72.85-1.9 72.85-3.5L72.85-3.5 72.85-19.65 69.75-19.6 69.4-22Q71-22.7 72.95-23.15L72.95-23.15 74.95-29.45 77.3-29.45 77.3-23.4 84.3-23.4 84.5-21.95 82.15-19.55 77.3-19.55 77.3-6.1Q77.3-4.55 77.65-3.98 78-3.4 78.95-3.4ZM87.79-32.5L101.74-32.9Q106.99-32.9 110.29-29.98 113.59-27.05 113.59-22.55L113.59-22.55Q113.59-18.25 110.57-15.33 107.54-12.4 102.74-12.25L102.74-12.25 95.94-12.25 95.94-3.05 101.79-2.35 101.74 0 87.34 0 87.04-1.6 91.29-3.15 91.29-29.9 87.74-30.1 87.79-32.5ZM101.04-15.15L101.04-15.15Q104.79-15.15 106.64-17.35 108.49-19.55 108.49-22.7L108.49-22.7Q108.49-25.1 107.49-27.08 106.49-29.05 104.59-29.95L104.59-29.95 95.94-29.2 95.94-15.6Q98.94-15.15 101.04-15.15ZM122.89-35L122.89-3.2Q125.39-2.9 126.49-2.4L126.49-2.4 126.19 0 114.89 0 114.64-1.65Q115.84-2.25 118.44-3.05L118.44-3.05 118.44-33.15 114.69-32.85 114.09-35.2Q117.44-36.65 120.89-36.75L120.89-36.75 122.89-35ZM151.34-3.75L152.09-1.55 147.04 0.75Q146.29 0.65 145.14-0.43 143.99-1.5 143.49-2.7L143.49-2.7 137.84 0.7 136.64 0.75Q133.64 0.75 131.81-0.95 129.99-2.65 129.99-5.2L129.99-5.2Q129.99-8.6 133.49-10.55L133.49-10.55 143.24-10.8 143.24-15.95Q143.24-18.25 142.69-19.43 142.14-20.6 140.79-21.3L140.79-21.3Q137.74-21.2 135.14-20.45L135.14-20.45 134.74-15.25 132.09-15.05Q130.79-17.4 130.64-21.05L130.64-21.05Q132.84-22.3 136.54-23.48 140.24-24.65 141.79-24.65L141.79-24.65Q143.19-24.65 144.69-23.63 146.19-22.6 146.94-21.48 147.69-20.35 147.74-17.4L147.74-17.4 147.74-4.3Q147.74-3.3 149.04-3.3L149.04-3.3Q149.79-3.3 151.34-3.75L151.34-3.75ZM135.99-2.9L135.99-2.9Q138.94-2.8 143.24-4.75L143.24-4.75 143.24-8.2 140.74-8.35Q134.69-8.35 134.69-5.2L134.69-5.2Q134.69-3.7 135.99-2.9ZM176.84-15.35L176.84-3.2Q179.39-2.85 180.34-2.4L180.34-2.4 180.04 0 169.78 0 169.53-1.65 172.39-2.75 172.39-14.8Q172.39-20.2 169.19-20.2L169.19-20.2Q166.28-20.2 161.39-16.45L161.39-16.45 161.39-3.15Q163.49-2.9 164.64-2.4L164.64-2.4 164.34 0 153.64 0 153.39-1.65 156.94-2.95 156.94-20.6 153.19-20.3 152.59-22.65Q155.94-24.1 159.39-24.2L159.39-24.2 161.39-22.45 161.39-19.15Q168.89-24.2 171.59-24.2L171.59-24.2Q173.04-23.95 174.51-22.73 175.99-21.5 176.41-20.2 176.84-18.9 176.84-15.35L176.84-15.35Z" opacity="1" transform="matrix(1,0,0,1,0,0)" fill="#526d82" class="wordmark-text-0" data-fill-palette-color="quaternary" id="text-0"/>
                            </svg>
                          </g>
                        </svg>
                      </g>
                      <g transform="matrix(1,0,0,1,0,72.9744021973721)">
                        <svg viewBox="0 0 316.72104 26.666693548754125" height="26.666693548754125" width="316.72104">
                          <g transform="matrix(1,0,0,1,0,0)">
                            <svg width="316.72104" viewBox="3.05 -36.5 439.40999999999997 37" height="26.666693548754125" data-palette-color="#526d82">
                              <path d="M12.8 0L3.05 0 3.05-35.5 18.35-35.5Q20.95-35.5 23.15-34.45 25.35-33.4 26.95-31.63 28.55-29.85 29.43-27.65 30.3-25.45 30.3-23.2L30.3-23.2Q30.3-20.05 28.83-17.25 27.35-14.45 24.73-12.68 22.1-10.9 18.6-10.9L18.6-10.9 12.8-10.9 12.8 0ZM12.8-27L12.8-19.4 17.95-19.4Q18.55-19.4 19.1-19.75 19.65-20.1 20.03-20.95 20.4-21.8 20.4-23.2L20.4-23.2Q20.4-24.7 19.98-25.53 19.55-26.35 18.93-26.68 18.3-27 17.7-27L17.7-27 12.8-27ZM51.4-26.75L51.4-18.2Q48.65-18.2 46.4-17.6 44.15-17 43.05-15.6L43.05-15.6 43.05 0 33.55 0 33.55-26.3 42.25-26.3 42.25-21.3Q43.65-23.95 45.75-25.38 47.85-26.8 50.2-26.8L50.2-26.8Q50.75-26.8 50.97-26.8 51.2-26.8 51.4-26.75L51.4-26.75ZM67.3 0.5L67.3 0.5Q63.85 0.5 61.15-0.58 58.45-1.65 56.62-3.5 54.8-5.35 53.85-7.75 52.9-10.15 52.9-12.8L52.9-12.8Q52.9-16.6 54.55-19.78 56.2-22.95 59.4-24.88 62.6-26.8 67.3-26.8L67.3-26.8Q72-26.8 75.2-24.9 78.4-23 80.05-19.9 81.7-16.8 81.7-13.15L81.7-13.15Q81.7-12.4 81.62-11.63 81.55-10.85 81.45-10.25L81.45-10.25 63-10.25Q63.1-8.85 63.77-7.98 64.45-7.1 65.47-6.7 66.5-6.3 67.6-6.3L67.6-6.3Q69.15-6.3 70.52-7 71.9-7.7 72.35-8.95L72.35-8.95 80.4-6.65Q79.35-4.55 77.47-2.95 75.6-1.35 73.05-0.43 70.5 0.5 67.3 0.5ZM62.8-15.95L62.8-15.95 71.5-15.95Q71.35-17.25 70.77-18.15 70.2-19.05 69.27-19.55 68.35-20.05 67.15-20.05L67.15-20.05Q65.95-20.05 65.02-19.55 64.1-19.05 63.52-18.15 62.95-17.25 62.8-15.95ZM97.79 0.5L97.79 0.5Q94.29 0.5 91.62-0.6 88.94-1.7 87.09-3.63 85.24-5.55 84.29-8 83.34-10.45 83.34-13.15L83.34-13.15Q83.34-16.75 85.02-19.88 86.69-23 89.92-24.9 93.14-26.8 97.79-26.8L97.79-26.8Q102.54-26.8 105.79-24.8 109.04-22.8 110.64-19.65L110.64-19.65 101.39-16.85Q100.74-17.8 99.82-18.3 98.89-18.8 97.74-18.8L97.74-18.8Q96.44-18.8 95.39-18.13 94.34-17.45 93.72-16.2 93.09-14.95 93.09-13.15L93.09-13.15Q93.09-11.4 93.72-10.13 94.34-8.85 95.39-8.18 96.44-7.5 97.74-7.5L97.74-7.5Q98.54-7.5 99.19-7.73 99.84-7.95 100.42-8.4 100.99-8.85 101.39-9.45L101.39-9.45 110.64-6.65Q109.59-4.55 107.77-2.95 105.94-1.35 103.47-0.43 100.99 0.5 97.79 0.5ZM123.14 0L113.64 0 113.64-26.3 123.14-26.3 123.14 0ZM123.14-28.5L113.64-28.5 113.64-36.5 123.14-36.5 123.14-28.5ZM138.49 0.5L138.49 0.5Q135.04 0.5 131.71-0.63 128.39-1.75 126.09-3.9L126.09-3.9 129.34-9.75Q131.79-8.15 134.06-7.25 136.34-6.35 138.19-6.35L138.19-6.35Q139.24-6.35 139.74-6.63 140.24-6.9 140.24-7.55L140.24-7.55Q140.24-8 139.89-8.3 139.54-8.6 138.76-8.9 137.99-9.2 136.79-9.55L136.79-9.55Q133.69-10.65 131.61-11.6 129.54-12.55 128.51-13.93 127.49-15.3 127.49-17.6L127.49-17.6Q127.49-20.3 128.84-22.38 130.19-24.45 132.71-25.65 135.24-26.85 138.79-26.85L138.79-26.85Q141.44-26.85 144.11-26.03 146.79-25.2 149.29-23.05L149.29-23.05 145.69-17.25Q143.19-18.8 141.46-19.45 139.74-20.1 138.39-20.1L138.39-20.1Q137.74-20.1 137.26-19.95 136.79-19.8 136.54-19.5 136.29-19.2 136.29-18.7L136.29-18.7Q136.29-18.2 136.64-17.88 136.99-17.55 137.74-17.28 138.49-17 139.64-16.65L139.64-16.65Q143.04-15.65 145.19-14.63 147.34-13.6 148.36-12.15 149.39-10.7 149.39-8.35L149.39-8.35Q149.39-4.2 146.46-1.85 143.54 0.5 138.49 0.5ZM190.58-31.95L186.38-23.9Q186.38-23.9 185.53-24.4 184.68-24.9 183.28-25.53 181.88-26.15 180.23-26.65 178.58-27.15 176.98-27.15L176.98-27.15Q175.73-27.15 174.93-26.75 174.13-26.35 174.13-25.4L174.13-25.4Q174.13-24.5 174.93-23.95 175.73-23.4 177.21-22.95 178.68-22.5 180.73-21.85L180.73-21.85Q184.03-20.85 186.43-19.55 188.83-18.25 190.13-16.23 191.43-14.2 191.43-10.85L191.43-10.85Q191.43-7.65 190.28-5.48 189.13-3.3 187.18-2 185.23-0.7 182.83-0.13 180.43 0.45 177.93 0.45L177.93 0.45Q175.38 0.45 172.61-0.08 169.83-0.6 167.23-1.53 164.63-2.45 162.48-3.7L162.48-3.7 166.68-12.25Q166.68-12.25 167.68-11.65 168.68-11.05 170.33-10.3 171.98-9.55 174.01-8.95 176.03-8.35 178.08-8.35L178.08-8.35Q179.68-8.35 180.31-8.78 180.93-9.2 180.93-9.9L180.93-9.9Q180.93-10.95 179.83-11.53 178.73-12.1 176.96-12.63 175.18-13.15 173.03-13.85L173.03-13.85Q169.93-14.9 167.93-16.23 165.93-17.55 164.98-19.38 164.03-21.2 164.03-23.8L164.03-23.8Q164.03-27.75 165.88-30.4 167.73-33.05 170.76-34.43 173.78-35.8 177.28-35.8L177.28-35.8Q179.88-35.8 182.31-35.18 184.73-34.55 186.86-33.65 188.98-32.75 190.58-31.95L190.58-31.95ZM208.03 0.5L208.03 0.5Q204.53 0.5 201.83-0.6 199.13-1.7 197.31-3.63 195.48-5.55 194.56-8 193.63-10.45 193.63-13.15L193.63-13.15Q193.63-15.85 194.56-18.32 195.48-20.8 197.31-22.7 199.13-24.6 201.83-25.7 204.53-26.8 208.03-26.8L208.03-26.8Q211.58-26.8 214.25-25.7 216.93-24.6 218.75-22.7 220.58-20.8 221.5-18.32 222.43-15.85 222.43-13.15L222.43-13.15Q222.43-10.45 221.5-8 220.58-5.55 218.75-3.63 216.93-1.7 214.25-0.6 211.58 0.5 208.03 0.5ZM203.38-13.15L203.38-13.15Q203.38-11.4 203.98-10.13 204.58-8.85 205.63-8.18 206.68-7.5 208.03-7.5L208.03-7.5Q209.38-7.5 210.43-8.18 211.48-8.85 212.08-10.13 212.68-11.4 212.68-13.15L212.68-13.15Q212.68-14.9 212.08-16.18 211.48-17.45 210.43-18.13 209.38-18.8 208.03-18.8L208.03-18.8Q206.68-18.8 205.63-18.13 204.58-17.45 203.98-16.18 203.38-14.9 203.38-13.15ZM268.18-17.3L268.18 0 258.68 0 258.68-14.8Q258.68-16.75 257.9-17.63 257.13-18.5 256.03-18.5L256.03-18.5Q254.93-18.5 253.63-17.45 252.33-16.4 251.73-14.75L251.73-14.75 251.73 0 242.23 0 242.23-14.8Q242.23-16.75 241.45-17.63 240.68-18.5 239.58-18.5L239.58-18.5Q238.48-18.5 237.18-17.45 235.88-16.4 235.28-14.75L235.28-14.75 235.28 0 225.78 0 225.78-26.3 234.33-26.3 234.33-22.4Q235.73-24.55 238.18-25.68 240.63-26.8 243.98-26.8L243.98-26.8Q247.23-26.8 248.88-25.4 250.53-24 251.08-22.25L251.08-22.25Q252.48-24.4 254.93-25.6 257.38-26.8 260.43-26.8L260.43-26.8Q263.03-26.8 264.58-25.85 266.13-24.9 266.9-23.4 267.68-21.9 267.93-20.28 268.18-18.65 268.18-17.3L268.18-17.3ZM298.32 0L284.67 0 284.67-35.5 298.32-35.5Q304.22-35.5 308.2-33.13 312.17-30.75 314.2-26.73 316.22-22.7 316.22-17.8L316.22-17.8Q316.22-12.4 314-8.4 311.77-4.4 307.75-2.2 303.72 0 298.32 0L298.32 0ZM306.32-17.8L306.32-17.8Q306.32-20.55 305.37-22.63 304.42-24.7 302.62-25.85 300.82-27 298.32-27L298.32-27 294.42-27 294.42-8.5 298.32-8.5Q300.87-8.5 302.65-9.7 304.42-10.9 305.37-13.03 306.32-15.15 306.32-17.8ZM319.57-9L319.57-9 319.57-26.3 329.07-26.3 329.07-11.15Q329.07-9.45 329.85-8.47 330.62-7.5 331.97-7.5L331.97-7.5Q332.72-7.5 333.47-7.7 334.22-7.9 335-8.5 335.77-9.1 336.52-10.2L336.52-10.2 336.52-26.3 346.02-26.3 346.02-10.5Q346.02-9.15 346.42-8.63 346.82-8.1 347.82-8L347.82-8 347.82 0Q346.57 0.25 345.57 0.38 344.57 0.5 343.82 0.5L343.82 0.5Q341.42 0.5 340.02-0.4 338.62-1.3 338.22-3.15L338.22-3.15 338.02-4.1Q336.17-1.65 333.6-0.58 331.02 0.5 327.77 0.5L327.77 0.5Q323.82 0.5 321.69-1.95 319.57-4.4 319.57-9ZM358.47-35.5L368.76-35.5 375.72-11.25 382.56-35.5 392.81-35.5 380.56 0 370.87 0 358.47-35.5ZM404.36 0L394.86 0 394.86-26.3 404.36-26.3 404.36 0ZM404.36-28.5L394.86-28.5 394.86-36.5 404.36-36.5 404.36-28.5ZM408.96-7.1L408.96-36.5 418.46-36.5 418.46-10.45Q418.46-9 419.09-8.22 419.71-7.45 420.91-7.45L420.91-7.45Q421.51-7.45 422.21-7.65 422.91-7.85 423.51-8.2L423.51-8.2 424.71-1.2Q423.01-0.4 420.89 0.05 418.76 0.5 416.86 0.5L416.86 0.5Q413.06 0.5 411.01-1.48 408.96-3.45 408.96-7.1L408.96-7.1ZM426.71-7.1L426.71-36.5 436.21-36.5 436.21-10.45Q436.21-9 436.83-8.22 437.46-7.45 438.66-7.45L438.66-7.45Q439.26-7.45 439.96-7.65 440.66-7.85 441.26-8.2L441.26-8.2 442.46-1.2Q440.76-0.4 438.63 0.05 436.51 0.5 434.61 0.5L434.61 0.5Q430.81 0.5 428.76-1.48 426.71-3.45 426.71-7.1L426.71-7.1Z" opacity="1" transform="matrix(1,0,0,1,0,0)" fill="#526d82" class="slogan-text-1" data-fill-palette-color="quaternary" id="text-1"/>
                            </svg>
                          </g>
                        </svg>
                      </g>
                    </svg>
                  </g>
                </svg>
              </g>
              <g/>
            </svg>
          </g>
        </svg>
        <rect width="356.12052" height="139.04057574612622" fill="none" stroke="none" visibility="hidden"/>
      </g>
    </svg>
  </g>
</svg>